<svg xmlns="http://www.w3.org/2000/svg" width="30" height="30" viewBox="0 0 30 30">
  <defs>
    <style>
      .cls-6 {
        fill: #a0a0a0;
      }
    </style>
  </defs>
  <path id="Tracker" data-name="Icon awesome-route" class="cls-6" d="M24.375,18.75H18.75a1.875,1.875,0,0,1,0-3.75h5.625S30,8.73,30,5.625a5.625,5.625,0,0,0-11.25,0c0,1.494,1.3,3.715,2.654,5.625H18.75a5.625,5.625,0,0,0,0,11.25h5.625a1.875,1.875,0,0,1,0,3.75H10.869A40.453,40.453,0,0,1,8.1,30H24.375a5.625,5.625,0,0,0,0-11.25Zm0-15A1.875,1.875,0,1,1,22.5,5.625,1.873,1.873,0,0,1,24.375,3.75ZM5.625,15A5.626,5.626,0,0,0,0,20.625C0,23.73,5.625,30,5.625,30s5.625-6.27,5.625-9.375A5.626,5.626,0,0,0,5.625,15Zm0,7.5A1.875,1.875,0,1,1,7.5,20.625,1.873,1.873,0,0,1,5.625,22.5Z"/>
</svg>
